<?xml version="1.0" encoding="UTF-8"?>
<svg width="21px" height="27px" viewBox="0 0 21 27" version="1.1" xmlns="http://www.w3.org/2000/svg" xmlns:xlink="http://www.w3.org/1999/xlink">
    <!-- Generator: Sketch 47.1 (45422) - http://www.bohemiancoding.com/sketch -->
    <title>Shape</title>
    <desc>Created with Sketch.</desc>
    <defs></defs>
    <g id="V1" stroke="none" stroke-width="1" fill="none" fill-rule="evenodd">
        <g id="distrikt_panels1" transform="translate(-73.000000, -589.000000)" stroke="#F8C603" stroke-width="1.5" fill-rule="nonzero">
            <path d="M83.2035779,590 C78.1289709,590 74,594.128971 74,599.20409 C74,600.527878 74.2709493,601.791796 74.8049165,602.961049 C77.1060668,607.99651 81.5180121,613.312899 82.8157033,614.822182 C82.9129278,614.935013 83.0546709,615 83.2038337,615 C83.3529966,615 83.4947396,614.935013 83.5919641,614.822182 C84.8891436,613.313155 89.3010889,607.997022 91.6030068,602.961049 C92.1372298,601.791796 92.4079233,600.527878 92.4079233,599.20409 C92.4074116,594.128971 88.2784407,590 83.2035779,590 Z M83.2035779,603.98472 C80.5675147,603.98472 78.4226912,601.839897 78.4226912,599.203834 C78.4226912,596.567515 80.5675147,594.422691 83.2035779,594.422691 C85.839641,594.422691 87.9844645,596.567515 87.9844645,599.203834 C87.9847204,601.839897 85.8398968,603.98472 83.2035779,603.98472 Z" id="Shape"></path>
        </g>
    </g>
</svg>