<?xml version="1.0" encoding="UTF-8"?>
<svg width="910px" height="1028px" viewBox="0 0 910 1028" version="1.1" xmlns="http://www.w3.org/2000/svg" xmlns:xlink="http://www.w3.org/1999/xlink">
    <!-- Generator: Sketch 47.1 (45422) - http://www.bohemiancoding.com/sketch -->
    <title>Polygon</title>
    <desc>Created with Sketch.</desc>
    <defs></defs>
    <g id="V1" stroke="none" stroke-width="1" fill="none" fill-rule="evenodd">
        <path d="M456.634139,2.19261915 L906.299817,256.390928 L906.299817,256.390928 C907.555163,257.100582 908.331357,258.431001 908.331357,259.873049 L908.331357,768.124747 L908.331357,768.124747 C908.331357,769.566794 907.555163,770.897214 906.299817,771.606867 L456.634139,1025.80518 L456.634139,1025.80518 C455.412664,1026.49568 453.918693,1026.49568 452.697218,1025.80518 L3.03153946,771.606867 L3.03153946,771.606867 C1.77619362,770.897214 1,769.566794 1,768.124747 L1,259.873049 L1,259.873049 C1,258.431001 1.77619362,257.100582 3.03153946,256.390928 L452.697218,2.19261915 L452.697218,2.19261915 C453.918693,1.50211314 455.412664,1.50211314 456.634139,2.19261915 Z" id="Polygon" stroke="#F8C603" stroke-width="2"></path>
    </g>
</svg>